HIERARCHY
ROOT Hips
{
	OFFSET 0.000000 0.000000 0.000000
	CHANNELS 6 Xposition Yposition Zposition Zrotation Yrotation Xrotation 
	JOINT LHipJoint
	{
		OFFSET 0.000000 0.000000 0.000000
		CHANNELS 3 Zrotation Yrotation Xrotation
		JOINT LeftUpLeg
		{
			OFFSET 1.363060 -1.794630 0.839290
			CHANNELS 3 Zrotation Yrotation Xrotation
			JOINT LeftLeg
			{
				OFFSET 2.448110 -6.726130 0.000000
				CHANNELS 3 Zrotation Yrotation Xrotation
				JOINT LeftFoot
				{
					OFFSET 2.562200 -7.039590 0.000000
					CHANNELS 3 Zrotation Yrotation Xrotation
					JOINT LeftToeBase
					{
						OFFSET 0.157640 -0.433110 2.322550
						CHANNELS 3 Zrotation Yrotation Xrotation
						End Site
						{
							OFFSET 0.000000 0.000000 0.000000
						}
					}
				}
			}
		}
	}
	JOINT RHipJoint
	{
		OFFSET 0.000000 0.000000 0.000000
		CHANNELS 3 Zrotation Yrotation Xrotation
		JOINT RightUpLeg
		{
			OFFSET -1.305520 -1.794630 0.839290
			CHANNELS 3 Zrotation Yrotation Xrotation
			JOINT RightLeg
			{
				OFFSET -2.542530 -6.985550 0.000000
				CHANNELS 3 Zrotation Yrotation Xrotation
				JOINT RightFoot
				{
					OFFSET -2.568260 -7.056230 0.000000
					CHANNELS 3 Zrotation Yrotation Xrotation
					JOINT RightToeBase
					{
						OFFSET -0.164730 -0.452590 2.363150
						CHANNELS 3 Zrotation Yrotation Xrotation
						End Site
						{
							OFFSET 0.000000 0.000000 0.000000
						}
					}
				}
			}
		}
	}
	JOINT LowerBack
	{
		OFFSET 0.000000 0.000000 0.000000
		CHANNELS 3 Zrotation Yrotation Xrotation
		JOINT Spine
		{
			OFFSET 0.028270 2.035590 -0.193380
			CHANNELS 3 Zrotation Yrotation Xrotation
			JOINT Spine1
			{
				OFFSET 0.056720 2.048850 -0.042750
				CHANNELS 3 Zrotation Yrotation Xrotation
				JOINT Neck
				{
					OFFSET 0.000000 0.000000 0.000000
					CHANNELS 3 Zrotation Yrotation Xrotation
					JOINT Neck1
					{
						OFFSET -0.054170 1.746240 0.172020
						CHANNELS 3 Zrotation Yrotation Xrotation
						JOINT Head
						{
							OFFSET 0.104070 1.761360 -0.123970
							CHANNELS 3 Zrotation Yrotation Xrotation
							End Site
							{
								OFFSET 0.000000 0.000000 0.000000
							}
						}
					}
				}
				JOINT LeftShoulder
				{
					OFFSET 0.000000 0.000000 0.000000
					CHANNELS 3 Zrotation Yrotation Xrotation
					JOINT LeftArm
					{
						OFFSET 3.362410 1.200890 -0.311210
						CHANNELS 3 Zrotation Yrotation Xrotation
						JOINT LeftForeArm
						{
							OFFSET 4.983000 -0.000000 -0.000000
							CHANNELS 3 Zrotation Yrotation Xrotation
							JOINT LeftHand
							{
								OFFSET 3.483560 -0.000000 -0.000000
								CHANNELS 3 Zrotation Yrotation Xrotation
								JOINT LeftFingerBase
								{
									OFFSET 0.000000 0.000000 0.000000
									CHANNELS 3 Zrotation Yrotation Xrotation
									JOINT LeftHandIndex1
									{
										OFFSET 0.715260 -0.000000 -0.000000
										CHANNELS 3 Zrotation Yrotation Xrotation
										End Site
										{
											OFFSET 0.000000 0.000000 0.000000
										}
									}
								}
								JOINT LThumb
								{
									OFFSET 0.000000 0.000000 0.000000
									CHANNELS 3 Zrotation Yrotation Xrotation
									End Site
									{
										OFFSET 0.000000 0.000000 0.000000
									}
								}
							}
						}
					}
				}
				JOINT RightShoulder
				{
					OFFSET 0.000000 0.000000 0.000000
					CHANNELS 3 Zrotation Yrotation Xrotation
					JOINT RightArm
					{
						OFFSET -3.136600 1.374050 -0.404650
						CHANNELS 3 Zrotation Yrotation Xrotation
						JOINT RightForeArm
						{
							OFFSET -5.241900 -0.000000 -0.000000
							CHANNELS 3 Zrotation Yrotation Xrotation
							JOINT RightHand
							{
								OFFSET -3.444170 -0.000000 -0.000000
								CHANNELS 3 Zrotation Yrotation Xrotation
								JOINT RightFingerBase
								{
									OFFSET 0.000000 0.000000 0.000000
									CHANNELS 3 Zrotation Yrotation Xrotation
									JOINT RightHandIndex1
									{
										OFFSET -0.622530 -0.000000 -0.000000
										CHANNELS 3 Zrotation Yrotation Xrotation
										End Site
										{
											OFFSET 0.000000 0.000000 0.000000
										}
									}
								}
								JOINT RThumb
								{
									OFFSET 0.000000 0.000000 0.000000
									CHANNELS 3 Zrotation Yrotation Xrotation
									End Site
									{
										OFFSET 0.000000 0.000000 0.000000
									}
								}
							}
						}
					}
				}
			}
		}
	}
}
MOTION
Frames: 8
Frame Time: 0.008333
0.783702 17.785678 -4.211428 -16.296213 2.983416 0.667297 -3.894103 -0.974277 0.926452 6.268822 -2.566833 -10.452872 2.654512 11.467171 31.782493 -4.304765 16.569493 -5.873964 0.379300 -3.955200 -10.950700 3.469116 1.765807 0.056348 23.705535 -9.585542 -14.024217 -5.379416 -15.035615 44.486440 0.320652 -5.502346 11.306825 -0.658900 5.191700 -14.456200 -11.069630 -1.011126 9.686382 -2.807213 -2.484244 1.109026 2.946689 -1.356263 -2.695671 2.762977 0.793753 -14.405020 17.505185 -0.491457 11.598339 2.790600 1.599300 8.127400 3.284884 -0.465146 -0.055649 -45.712243 6.284148 -29.323084 26.723904 -36.857316 -7.961565 0.290614 0.703324 -10.511021 19.802673 4.442877 1.326700 -7.125000 0.000000 0.000000 -5.935900 33.933700 1.618600 -2.435637 1.994171 0.500021 29.779022 -15.920540 -28.628403 -22.897541 32.157393 -6.357744 0.093796 -0.504568 -6.294663 -18.078520 -1.902261 0.445800 7.125000 0.000000 0.000000 6.751900 -31.370300 2.263900 
0.779124 17.801205 -4.183958 -16.585926 3.388816 0.761356 -3.868455 -0.960170 0.921789 6.579864 -2.878757 -10.406850 2.614153 11.385820 31.527368 -4.306067 16.549599 -5.726974 0.373500 -3.925500 -10.867300 3.464118 1.772523 0.043096 24.041042 -9.641012 -14.368075 -5.463508 -15.105891 44.767153 0.326079 -5.728718 11.882133 -0.628500 5.073000 -14.116800 -11.180827 -1.063940 9.858403 -2.883646 -2.578695 1.195869 2.938949 -1.408438 -2.677507 2.750499 0.748229 -14.383935 17.959794 -0.565207 11.472133 2.931600 1.594300 8.082100 3.283632 -0.449718 -0.054890 -45.838711 5.985826 -29.270006 26.673448 -36.814057 -7.937794 0.292235 0.700830 -10.410870 19.824017 4.450669 1.331800 -7.125000 0.000000 0.000000 -5.919400 33.944900 1.612500 -2.437089 2.003937 0.497862 29.813485 -16.085040 -28.868578 -22.877179 32.130743 -6.346278 0.093576 -0.504283 -6.267999 -18.023277 -1.891042 0.440900 7.125000 0.000000 0.000000 6.795000 -31.358100 2.280500 
0.774446 17.817130 -4.155592 -16.845636 3.775226 0.858202 -3.846524 -0.946225 0.919482 6.860273 -3.191000 -10.348428 2.569574 11.300869 31.257734 -4.313370 16.549827 -5.595689 0.364700 -3.879100 -10.736900 3.460012 1.779246 0.028975 24.334618 -9.656041 -14.702841 -5.548311 -15.176300 45.050385 0.323187 -5.932891 12.475465 -0.590400 4.919500 -13.679000 -11.310025 -1.108288 10.011051 -2.959234 -2.660891 1.285842 2.942013 -1.455834 -2.645855 2.682799 0.675914 -14.393984 18.434312 -0.666557 11.390302 3.089300 1.579600 8.057800 3.281736 -0.430052 -0.054662 -45.974674 5.679320 -29.210818 26.604921 -36.752062 -7.903819 0.294393 0.696898 -10.262619 19.830819 4.420867 1.322900 -7.125000 0.000000 0.000000 -5.911300 33.917200 1.614200 -2.439381 2.017375 0.496540 29.841624 -16.250148 -29.093011 -22.850292 32.095923 -6.330898 0.093009 -0.503930 -6.223624 -17.952816 -1.855946 0.427900 7.125000 0.000000 0.000000 6.848200 -31.320900 2.304800 
0.770066 17.833055 -4.126330 -17.074204 4.136866 0.963903 -3.828878 -0.933331 0.918922 7.106609 -3.495393 -10.283852 2.521427 11.212658 30.975846 -4.329210 16.578257 -5.477450 0.354500 -3.825400 -10.586000 3.456730 1.785786 0.013950 24.580493 -9.636957 -15.039011 -5.633959 -15.247239 45.338031 0.309181 -6.109097 13.105080 -0.550000 4.750800 -13.199000 -11.454108 -1.146618 10.144626 -3.033913 -2.735411 1.367602 2.953392 -1.498675 -2.612988 2.646512 0.615903 -14.387009 18.860966 -0.755034 11.313263 3.226500 1.568200 8.032800 3.280143 -0.413336 -0.054286 -46.133300 5.402983 -29.126982 26.540387 -36.692677 -7.871661 0.296195 0.691972 -10.123289 19.810423 4.354126 1.299600 -7.125000 0.000000 0.000000 -5.921700 33.850700 1.626700 -2.440842 2.028853 0.494850 29.857960 -16.411921 -29.260115 -22.832633 32.071888 -6.320154 0.092872 -0.503496 -6.199484 -17.863902 -1.841880 0.421300 7.125000 0.000000 0.000000 6.917700 -31.305300 2.331100 
0.766284 17.848780 -4.096172 -17.281677 4.472317 1.074244 -3.814119 -0.920266 0.920653 7.327781 -3.793843 -10.208119 2.471036 11.122653 30.686087 -4.353601 16.634597 -5.377699 0.344100 -3.769300 -10.428600 3.453927 1.792311 -0.002038 24.789083 -9.584085 -15.371569 -5.720970 -15.319247 45.633132 0.283740 -6.249263 13.753068 -0.514400 4.597100 -12.762800 -11.597845 -1.181070 10.260955 -3.105916 -2.803021 1.441771 2.967283 -1.538568 -2.579274 2.586264 0.543527 -14.398883 19.280075 -0.858477 11.286484 3.367600 1.553200 8.028600 3.277829 -0.394239 -0.054712 -46.313030 5.153318 -29.031130 26.479421 -36.635858 -7.840888 0.297142 0.686557 -9.996847 19.754870 4.272555 1.268800 -7.125000 0.000000 0.000000 -5.958900 33.768000 1.649000 -2.442615 2.043166 0.493865 29.857396 -16.564894 -29.386512 -22.812773 32.045234 -6.308513 0.092760 -0.503272 -6.185446 -17.797571 -1.837117 0.418300 7.125000 0.000000 0.000000 6.969900 -31.299700 2.349900 
0.763597 17.863610 -4.064920 -17.471010 4.787420 1.182656 -3.801932 -0.907167 0.924324 7.524787 -4.087637 -10.119532 2.420328 11.033528 30.397595 -4.386676 16.719569 -5.296812 0.335100 -3.719900 -10.290000 3.451163 1.798451 -0.018377 24.960259 -9.517341 -15.698928 -5.809952 -15.392898 45.939242 0.245745 -6.345670 14.415432 -0.483000 4.456700 -12.365300 -11.731290 -1.211434 10.375989 -3.176606 -2.865387 1.504670 2.977444 -1.574739 -2.558354 2.522765 0.473412 -14.413067 19.673175 -0.957377 11.269452 3.501700 1.538700 8.028400 3.275578 -0.376202 -0.055228 -46.512536 4.928174 -28.930697 26.414895 -36.574495 -7.808000 0.297636 0.681298 -9.846491 19.684161 4.208226 1.243100 -7.125000 0.000000 0.000000 -6.009300 33.702600 1.672700 -2.444239 2.057253 0.493070 29.843461 -16.714430 -29.484221 -22.789386 32.014683 -6.295193 0.092628 -0.503119 -6.159629 -17.740662 -1.840050 0.417900 7.125000 0.000000 0.000000 7.015400 -31.302100 2.365000 
0.762104 17.877644 -4.033070 -17.643134 5.081474 1.291553 -3.792226 -0.894490 0.929160 7.698120 -4.373715 -10.024955 2.370600 10.946896 30.115867 -4.428796 16.833979 -5.231735 0.328200 -3.682200 -10.184400 3.448436 1.804314 -0.035098 25.094917 -9.434265 -16.023907 -5.901595 -15.468809 46.258535 0.196549 -6.400727 15.082521 -0.460200 4.351600 -12.068000 -11.851110 -1.242218 10.487018 -3.246883 -2.927642 1.559169 2.980362 -1.610012 -2.544160 2.489524 0.416193 -14.423306 20.010088 -1.044889 11.273859 3.614400 1.528500 8.034900 3.273351 -0.360192 -0.055997 -46.731768 4.738459 -28.826255 26.358986 -36.521207 -7.779858 0.297357 0.676983 -9.723978 19.607667 4.173522 1.227100 -7.125000 0.000000 0.000000 -6.066900 33.667400 1.694000 -2.445400 2.070043 0.492331 29.812998 -16.845230 -29.528551 -22.768713 31.987804 -6.283577 0.092508 -0.503181 -6.161813 -17.717509 -1.843530 0.418400 7.125000 0.000000 0.000000 7.034200 -31.305300 2.370900 
0.761507 17.890085 -4.001220 -17.810197 5.350046 1.397795 -3.783021 -0.881635 0.934898 7.861022 -4.644529 -9.927631 2.323546 10.863506 29.844606 -4.478637 16.973477 -5.177055 0.324300 -3.660100 -10.122200 3.445107 1.809627 -0.052402 25.211135 -9.327084 -16.343490 -5.996557 -15.547591 46.594764 0.137703 -6.416640 15.747097 -0.446800 4.288400 -11.889400 -11.943774 -1.269738 10.588539 -3.318363 -2.982137 1.610255 2.966205 -1.641036 -2.532534 2.414912 0.355219 -14.391594 20.360609 -1.123402 11.237205 3.735500 1.514700 8.019600 3.272018 -0.346593 -0.056228 -46.950758 4.563908 -28.739337 26.294754 -36.459294 -7.747057 0.296681 0.673763 -9.591702 19.531268 4.182806 1.226100 -7.125000 0.000000 0.000000 -6.128100 33.677200 1.709800 -2.446034 2.081117 0.491561 29.784211 -16.969787 -29.531480 -22.756494 31.971347 -6.276842 0.092286 -0.503237 -6.206780 -17.705737 -1.821849 0.411200 7.125000 0.000000 0.000000 7.042200 -31.282400 2.377500 
